<?xml version="1.0" standalone="no"?>
<!DOCTYPE svg PUBLIC "-//W3C//DTD SVG 20010904//EN"
 "http://www.w3.org/TR/2001/REC-SVG-20010904/DTD/svg10.dtd">
<svg version="1.0" xmlns="http://www.w3.org/2000/svg"
 width="898.000000pt" height="898.000000pt" viewBox="0 0 898.000000 898.000000"
 preserveAspectRatio="xMidYMid meet">
<metadata>
Created by potrace 1.11, written by Peter Selinger 2001-2013
</metadata>
<g transform="translate(0.000000,898.000000) scale(0.100000,-0.100000)"
fill="#000000" stroke="none">
<path d="M4229 8977 c-2 -3 -49 -7 -104 -11 -55 -3 -111 -8 -125 -10 -14 -2
-50 -7 -80 -11 -83 -9 -117 -15 -205 -31 -44 -8 -96 -17 -115 -20 -19 -3 -114
-26 -211 -50 -1593 -399 -2857 -1662 -3254 -3254 -61 -246 -103 -496 -122
-725 -16 -196 -9 -735 12 -867 2 -13 6 -50 10 -83 22 -198 92 -519 161 -745
360 -1170 1185 -2145 2283 -2695 479 -241 1019 -400 1526 -450 33 -4 76 -9 95
-12 81 -12 640 -11 781 2 1133 102 2167 615 2934 1456 65 71 68 75 166 194
321 391 588 871 755 1357 90 265 168 584 199 818 3 25 8 56 10 70 5 34 16 137
25 240 8 92 5 676 -5 750 -3 25 -13 101 -21 170 -180 1448 -1095 2747 -2405
3417 -518 265 -1019 411 -1639 478 -65 7 -664 17 -671 12z"/>
</g>
</svg>
